<?xml version="1.0" encoding="utf-8"?>
<!-- Generator: Adobe Illustrator 25.3.0, SVG Export Plug-In . SVG Version: 6.00 Build 0)  -->
<svg version="1.1" id="Layer_1" xmlns="http://www.w3.org/2000/svg" xmlns:xlink="http://www.w3.org/1999/xlink" x="0px" y="0px"
	 viewBox="0 0 600 400" style="enable-background:new 0 0 600 400;" xml:space="preserve">
<style type="text/css">
	.st0{fill:none;stroke:#000000;stroke-miterlimit:10;}
	.st1{fill:none;stroke:#000000;stroke-linecap:round;stroke-linejoin:round;stroke-miterlimit:10;}
	.st2{fill:none;}
	.st3{font-family:'MyriadPro-Regular';}
	.st4{font-size:12px;}
</style>
<path class="st0" d="M300,52.75c-32.28,18.67-54,53.57-54,93.55v0.38c-32.09,18.64-53.67,53.38-53.67,93.17v0.19
	C159.87,221.42,138,186.41,138,146.3c0-59.65,48.35-108,108-108C265.67,38.3,284.11,43.56,300,52.75z"/>
<path class="st0" d="M354,146.3v0.38c-15.87-9.22-34.32-14.5-54-14.5s-38.13,5.28-54,14.5v-0.38c0-39.98,21.72-74.88,54-93.55
	C332.28,71.42,354,106.32,354,146.3z"/>
<path class="st0" d="M462,146.3c0,40.11-21.87,75.12-54.33,93.74v-0.19c0-39.79-21.58-74.53-53.67-93.17v-0.38
	c0-39.98-21.72-74.88-54-93.55c15.89-9.19,34.33-14.45,54-14.45C413.65,38.3,462,86.65,462,146.3z"/>
<path class="st0" d="M407.67,240.04c-0.1,59.38-48.26,107.48-107.67,107.48s-107.57-48.1-107.67-107.48
	c15.81,9.07,34.14,14.26,53.67,14.26c19.67,0,38.11-5.26,54-14.45c15.89,9.19,34.33,14.45,54,14.45
	C373.53,254.3,391.86,249.11,407.67,240.04z"/>
<path class="st0" d="M354,146.68c0,0.5-0.01,1-0.02,1.49c0,0.37-0.01,0.74-0.02,1.11c-0.01,0.37-0.02,0.75-0.04,1.12
	c-0.02,0.7-0.06,1.41-0.1,2.11c-0.02,0.52-0.06,1.05-0.1,1.57c-0.05,0.71-0.1,1.42-0.17,2.12c-0.04,0.52-0.09,1.03-0.15,1.54
	c-0.11,1.1-0.25,2.2-0.4,3.29c-0.06,0.48-0.13,0.96-0.21,1.44c-0.19,1.32-0.41,2.63-0.66,3.94c-0.1,0.56-0.21,1.11-0.33,1.67
	c-0.26,1.3-0.55,2.6-0.87,3.89c-0.26,1.07-0.53,2.13-0.83,3.19c-0.32,1.15-0.65,2.29-1.01,3.42c-0.15,0.5-0.31,1.01-0.48,1.51
	c-0.39,1.19-0.8,2.36-1.23,3.53c-0.2,0.55-0.41,1.11-0.63,1.66c-0.21,0.55-0.42,1.09-0.65,1.64c-0.22,0.54-0.45,1.09-0.68,1.63
	c-0.23,0.54-0.46,1.08-0.7,1.61c-0.71,1.61-1.46,3.2-2.26,4.77c-0.23,0.46-0.46,0.92-0.71,1.37c-0.3,0.58-0.61,1.16-0.92,1.73
	c-0.28,0.52-0.56,1.03-0.85,1.53c-0.29,0.51-0.58,1.01-0.88,1.51c-0.29,0.5-0.59,1-0.9,1.5c-0.3,0.5-0.61,0.99-0.92,1.48
	c-0.61,0.98-1.25,1.95-1.91,2.91c-0.66,0.96-1.33,1.91-2.01,2.85c-1.02,1.41-2.08,2.79-3.17,4.14c-0.36,0.45-0.73,0.9-1.1,1.35
	c-0.76,0.92-1.54,1.82-2.33,2.71c-0.75,0.84-1.51,1.67-2.28,2.49c-0.81,0.86-1.64,1.71-2.48,2.54c-0.81,0.79-1.62,1.58-2.45,2.35
	c-4.67,4.34-9.72,8.27-15.09,11.74c-0.98,0.62-1.96,1.23-2.95,1.83c-0.5,0.3-1,0.6-1.51,0.89c-0.5-0.29-1.01-0.59-1.51-0.89
	c-0.99-0.59-1.97-1.21-2.95-1.83c-0.49-0.31-0.97-0.63-1.45-0.96c-0.44-0.29-0.88-0.59-1.31-0.89c-1.56-1.07-3.1-2.19-4.6-3.35
	c-0.37-0.28-0.74-0.57-1.1-0.86c-0.45-0.35-0.9-0.71-1.35-1.08c-0.57-0.47-1.15-0.94-1.71-1.43c-0.4-0.34-0.8-0.68-1.2-1.04
	c-0.35-0.3-0.69-0.6-1.03-0.91c-0.45-0.4-0.9-0.81-1.34-1.22c-0.83-0.77-1.64-1.56-2.45-2.35c-0.84-0.84-1.67-1.68-2.48-2.54
	c-0.77-0.82-1.53-1.65-2.28-2.49c-0.79-0.89-1.57-1.8-2.33-2.71c-0.37-0.45-0.74-0.9-1.1-1.35c-0.55-0.67-1.08-1.36-1.61-2.05
	c-0.5-0.66-1-1.32-1.48-1.98c-0.03-0.04-0.05-0.07-0.08-0.11c-0.68-0.94-1.35-1.89-2.01-2.85c-0.33-0.48-0.65-0.96-0.97-1.45
	c-0.32-0.48-0.63-0.97-0.94-1.46c-0.31-0.5-0.62-0.99-0.92-1.48l-0.9-1.5c-0.3-0.51-0.59-1.01-0.88-1.51
	c-0.28-0.51-0.57-1.02-0.85-1.53c-0.31-0.58-0.62-1.15-0.92-1.73c-0.24-0.45-0.48-0.91-0.71-1.37c-0.4-0.79-0.78-1.57-1.16-2.37
	c-0.37-0.8-0.74-1.6-1.1-2.4c-0.24-0.53-0.48-1.07-0.7-1.61c-0.23-0.54-0.46-1.09-0.68-1.63c-0.22-0.55-0.44-1.09-0.65-1.64
	s-0.42-1.1-0.63-1.66c-0.22-0.58-0.42-1.17-0.63-1.76c-0.21-0.58-0.41-1.18-0.6-1.77c-0.03-0.09-0.06-0.17-0.08-0.26
	c-0.14-0.41-0.27-0.83-0.4-1.25c-0.36-1.13-0.69-2.27-1.01-3.42c-0.29-1.06-0.57-2.12-0.83-3.19c-0.31-1.29-0.61-2.58-0.87-3.89
	c0-0.01,0-0.02-0.01-0.03c-0.11-0.55-0.22-1.09-0.32-1.64c-0.12-0.65-0.24-1.3-0.35-1.96c0-0.01-0.01-0.02,0-0.04
	c-0.12-0.64-0.22-1.29-0.31-1.94c-0.08-0.47-0.15-0.96-0.21-1.44c-0.15-1.09-0.29-2.19-0.4-3.29c-0.06-0.51-0.11-1.02-0.15-1.54
	c-0.07-0.7-0.12-1.41-0.17-2.12c-0.04-0.45-0.07-0.91-0.09-1.37c0-0.07-0.01-0.13-0.01-0.2c-0.01-0.21-0.02-0.42-0.04-0.63
	c-0.02-0.5-0.05-0.99-0.06-1.48c-0.02-0.37-0.03-0.75-0.04-1.12v-0.27c-0.01-0.28-0.02-0.56-0.02-0.84
	c-0.01-0.5-0.02-0.99-0.02-1.49c15.87-9.22,34.32-14.5,54-14.5S338.13,137.46,354,146.68z"/>
<path class="st0" d="M300,239.85c-15.89,9.19-34.33,14.45-54,14.45c-19.53,0-37.86-5.19-53.67-14.26v-0.19
	c0-39.79,21.58-74.53,53.67-93.17c0,0.5,0.01,0.99,0.02,1.49c0,0.28,0.01,0.56,0.02,0.84v0.27c0.01,0.37,0.02,0.75,0.04,1.12
	c0.01,0.49,0.04,0.98,0.06,1.48c0.02,0.21,0.03,0.42,0.04,0.63c0,0.07,0.01,0.13,0.01,0.2c0.02,0.46,0.05,0.92,0.09,1.37
	c0.05,0.71,0.1,1.42,0.17,2.12c0.04,0.52,0.09,1.03,0.15,1.54c0.11,1.1,0.25,2.2,0.4,3.29c0.06,0.48,0.13,0.97,0.21,1.44
	c0.09,0.65,0.19,1.3,0.31,1.94c-0.01,0.02,0,0.03,0,0.04c0.11,0.66,0.23,1.31,0.35,1.96c0.1,0.55,0.21,1.09,0.32,1.64
	c0.01,0.01,0.01,0.02,0.01,0.03c0.26,1.31,0.56,2.6,0.87,3.89c0.26,1.07,0.54,2.13,0.83,3.19c0.32,1.15,0.65,2.29,1.01,3.42
	c0.12,0.42,0.26,0.84,0.4,1.25c0.02,0.09,0.05,0.17,0.08,0.26c0.19,0.59,0.39,1.19,0.6,1.77c0.21,0.59,0.41,1.18,0.63,1.76
	c0.21,0.56,0.42,1.11,0.63,1.66s0.43,1.09,0.65,1.64c0.22,0.55,0.44,1.09,0.68,1.63c0.22,0.54,0.46,1.08,0.7,1.61
	c0.35,0.81,0.72,1.6,1.1,2.4c0.38,0.8,0.76,1.58,1.16,2.37c0.23,0.46,0.47,0.92,0.71,1.37c0.3,0.58,0.61,1.15,0.92,1.73
	c0.28,0.51,0.57,1.02,0.85,1.53c0.29,0.5,0.58,1,0.88,1.51l0.9,1.5c0.3,0.49,0.61,0.98,0.92,1.48c0.3,0.49,0.62,0.97,0.94,1.46
	c0.32,0.49,0.64,0.97,0.97,1.45c0.65,0.96,1.32,1.91,2.01,2.85c0.03,0.04,0.05,0.07,0.08,0.11c0.48,0.66,0.98,1.32,1.48,1.98
	c0.52,0.69,1.06,1.37,1.61,2.05c0.36,0.45,0.73,0.9,1.1,1.35c0.76,0.91,1.54,1.82,2.33,2.71c0.75,0.84,1.51,1.67,2.28,2.49
	c0.81,0.86,1.64,1.7,2.48,2.54c0.81,0.8,1.62,1.58,2.45,2.35c0.44,0.41,0.89,0.82,1.34,1.22c0.34,0.31,0.68,0.61,1.03,0.91
	c0.4,0.36,0.8,0.7,1.2,1.04c0.56,0.49,1.14,0.96,1.71,1.43c0.45,0.37,0.9,0.73,1.35,1.08c0.36,0.29,0.73,0.58,1.1,0.86
	c1.5,1.16,3.04,2.28,4.6,3.35c0.43,0.3,0.87,0.6,1.31,0.89c0.48,0.33,0.96,0.65,1.45,0.96c0.98,0.62,1.96,1.24,2.95,1.83
	C298.99,239.26,299.5,239.56,300,239.85z"/>
<path class="st0" d="M407.67,239.85v0.19c-15.81,9.07-34.14,14.26-53.67,14.26c-19.67,0-38.11-5.26-54-14.45
	c0.51-0.29,1.01-0.59,1.51-0.89c0.99-0.6,1.97-1.21,2.95-1.83c5.37-3.47,10.42-7.4,15.09-11.74c0.83-0.77,1.64-1.55,2.45-2.35
	c0.84-0.83,1.67-1.68,2.48-2.54c0.77-0.82,1.53-1.65,2.28-2.49c0.79-0.89,1.57-1.79,2.33-2.71c0.37-0.45,0.74-0.9,1.1-1.35
	c1.09-1.35,2.15-2.73,3.17-4.14c0.69-0.94,1.36-1.89,2.01-2.85c0.66-0.96,1.3-1.93,1.91-2.91c0.31-0.49,0.62-0.98,0.92-1.48
	c0.31-0.5,0.61-1,0.9-1.5c0.3-0.5,0.59-1,0.88-1.51c0.29-0.5,0.57-1.01,0.85-1.53c0.31-0.57,0.62-1.15,0.92-1.73
	c0.25-0.45,0.48-0.91,0.71-1.37c0.8-1.57,1.55-3.16,2.26-4.77c0.24-0.53,0.47-1.07,0.7-1.61c0.24-0.54,0.46-1.08,0.68-1.63
	c0.23-0.55,0.44-1.09,0.65-1.64c0.22-0.55,0.43-1.11,0.63-1.66c0.43-1.17,0.84-2.34,1.23-3.53c0.17-0.5,0.33-1.01,0.48-1.51
	c0.36-1.13,0.69-2.27,1.01-3.42c0.3-1.06,0.57-2.12,0.83-3.19c0.32-1.29,0.61-2.59,0.87-3.89c0.12-0.56,0.23-1.11,0.33-1.67
	c0.25-1.31,0.47-2.62,0.66-3.94c0.08-0.48,0.15-0.96,0.21-1.44c0.15-1.09,0.29-2.19,0.4-3.29c0.06-0.51,0.11-1.02,0.15-1.54
	c0.07-0.7,0.12-1.41,0.17-2.12c0.04-0.52,0.08-1.05,0.1-1.57c0.04-0.7,0.08-1.41,0.1-2.11c0.02-0.37,0.03-0.75,0.04-1.12
	c0.01-0.37,0.02-0.74,0.02-1.11c0.01-0.49,0.02-0.99,0.02-1.49C386.09,165.32,407.67,200.06,407.67,239.85z"/>
<polyline class="st1" points="192.33,99.71 138,38.3 70.51,38.3 "/>
<rect x="69.21" y="25.75" class="st2" width="68.79" height="9.63"/>
<text transform="matrix(1 0 0 1 69.6376 34.2665)" class="st3 st4">RGB(255, 0, 0)</text>
<polyline class="st1" points="407.67,99.71 462,38.3 529.62,38.3 "/>
<rect x="462" y="25.75" class="st2" width="68.79" height="9.63"/>
<text transform="matrix(1 0 0 1 462.0002 34.2665)" class="st3 st4">RGB(0, 255, 0)</text>
<rect x="149.43" y="362.95" class="st2" width="68.79" height="9.63"/>
<text transform="matrix(1 0 0 1 149.8578 371.4681)" class="st3 st4">RGB(0, 0, 255)</text>
<polyline class="st1" points="300,293.68 218.22,375.28 151.51,375.28 "/>
</svg>
